<?xml version="1.0" standalone="no"?>
<!DOCTYPE svg PUBLIC "-//W3C//DTD SVG 20010904//EN"
 "http://www.w3.org/TR/2001/REC-SVG-20010904/DTD/svg10.dtd">
<svg version="1.0" xmlns="http://www.w3.org/2000/svg"
 width="700.000000pt" height="700.000000pt" viewBox="0 0 700.000000 700.000000"
 preserveAspectRatio="xMidYMid meet">
<metadata>
Created by potrace 1.11, written by Peter Selinger 2001-2013
</metadata>
<g transform="translate(0.000000,700.000000) scale(0.100000,-0.100000)"
fill="#000000" stroke="none">
<path d="M3298 6996 c-1 -2 -41 -6 -88 -10 -178 -12 -388 -47 -581 -96 -650
-166 -1241 -521 -1708 -1026 -95 -103 -101 -111 -186 -219 -409 -524 -662
-1173 -723 -1850 -9 -106 -8 -510 1 -605 9 -81 25 -210 33 -250 2 -14 7 -41
10 -60 3 -19 7 -42 9 -50 2 -8 7 -30 10 -48 3 -18 21 -92 39 -165 268 -1040
1016 -1909 2011 -2335 190 -81 488 -176 647 -206 13 -2 60 -11 106 -20 46 -9
111 -19 145 -22 34 -3 65 -8 68 -10 15 -9 235 -19 419 -19 261 1 331 6 580 46
256 42 516 118 775 227 117 49 342 162 387 193 14 11 29 19 33 19 13 0 269
175 362 248 180 140 344 294 476 447 33 39 63 72 67 75 3 3 44 55 90 115 332
436 547 915 654 1456 14 70 28 155 32 190 3 35 8 67 10 70 10 17 19 216 18
409 0 191 -4 283 -18 400 -14 114 -17 138 -20 156 -2 10 -11 60 -21 109 -32
170 -76 333 -137 505 -224 627 -596 1145 -1137 1583 -223 180 -566 379 -849
492 -93 36 -253 94 -282 100 -8 2 -46 13 -85 24 -68 21 -260 65 -320 75 -34 6
-227 33 -295 42 -48 6 -526 15 -532 10z m407 -880 c571 -46 1101 -271 1534
-651 335 -294 606 -701 746 -1122 37 -109 84 -285 91 -337 2 -15 5 -35 8 -45
3 -9 8 -41 12 -71 4 -30 8 -66 10 -80 17 -135 22 -411 10 -527 -22 -194 -39
-296 -70 -425 -13 -52 -50 -178 -61 -208 -53 -141 -74 -191 -135 -315 -245
-499 -658 -918 -1155 -1170 -223 -114 -513 -215 -691 -240 -22 -3 -44 -8 -51
-10 -6 -2 -38 -7 -70 -11 -32 -3 -60 -8 -63 -9 -3 -2 -57 -7 -120 -11 -302
-20 -568 3 -845 72 -106 27 -230 66 -280 88 -16 8 -41 17 -55 21 -46 13 -312
147 -394 198 -663 417 -1119 1106 -1221 1847 -3 25 -8 56 -10 70 -36 247 -19
601 41 876 8 39 17 79 19 90 2 10 4 19 5 19 1 0 3 10 6 23 7 38 85 266 95 277
5 5 9 15 9 22 0 24 115 255 180 363 219 364 500 646 890 896 67 43 311 163
400 197 152 58 357 118 456 132 22 4 46 8 54 10 8 2 38 7 65 11 28 3 59 8 70
10 10 2 62 6 115 10 52 3 96 7 97 8 4 3 244 -2 308 -8z"/>
<path d="M3397 5684 c-2 -2 -30 -5 -63 -5 -74 -2 -252 -30 -364 -59 -47 -12
-92 -23 -100 -25 -8 -2 -60 -20 -115 -40 -197 -71 -389 -175 -566 -306 -273
-203 -506 -486 -658 -801 -82 -170 -167 -433 -186 -578 -3 -25 -10 -70 -15
-100 -4 -30 -9 -62 -9 -70 -9 -302 -4 -428 25 -573 3 -16 7 -38 9 -50 6 -53
58 -234 95 -335 288 -784 1021 -1347 1850 -1419 86 -7 270 -9 370 -3 51 3 248
32 297 43 74 18 221 59 238 66 11 5 58 24 105 42 106 40 221 98 323 161 43 26
82 48 87 48 5 0 10 3 12 7 2 5 39 35 83 68 217 161 428 395 559 620 26 44 51
87 57 95 22 36 91 193 123 280 35 97 94 315 102 379 2 20 6 50 9 66 27 169 25
434 -5 637 -114 779 -672 1457 -1420 1725 -87 31 -255 78 -315 89 -14 2 -51 8
-83 13 -113 20 -433 37 -445 25z m308 -889 c520 -88 933 -463 1064 -965 29
-112 35 -171 36 -325 0 -200 -14 -288 -72 -448 -107 -300 -334 -563 -614 -711
-75 -40 -199 -92 -239 -101 -8 -2 -42 -10 -74 -19 -94 -25 -151 -31 -306 -31
-126 0 -209 6 -269 20 -266 63 -473 176 -656 360 -202 202 -326 443 -371 720
-10 65 -11 334 -1 405 62 432 380 839 787 1007 94 39 238 80 310 88 30 4 57 8
59 10 9 10 276 1 346 -10z"/>
<path d="M3420 4369 c-403 -36 -736 -355 -786 -754 -58 -465 246 -884 708
-975 66 -13 222 -16 288 -6 632 100 950 821 596 1351 -177 266 -485 413 -806
384z"/>
</g>
</svg>
