<?xml version="1.0" encoding="utf-8"?>
<!-- Generated by IcoMoon.io -->
<!DOCTYPE svg PUBLIC "-//W3C//DTD SVG 1.1//EN" "http://www.w3.org/Graphics/SVG/1.1/DTD/svg11.dtd">
<svg version="1.1" xmlns="http://www.w3.org/2000/svg" xmlns:xlink="http://www.w3.org/1999/xlink" width="15" height="15" viewBox="0 0 15 15">
<g id="icomoon-ignore">
	<line stroke-width="1" x1="" y1="" x2="" y2="" stroke="#449FDB" opacity=""></line>
</g>
	<path d="M7.5 15c-4.142 0-7.5-3.358-7.5-7.5s3.358-7.5 7.5-7.5c4.142 0 7.5 3.358 7.5 7.5s-3.358 7.5-7.5 7.5zM7.5 1.875c-3.106 0-5.625 2.519-5.625 5.625s2.519 5.625 5.625 5.625c3.107 0 5.625-2.519 5.625-5.625s-2.518-5.625-5.625-5.625zM8.438 11.25h-1.875v-2.813h-2.813v-1.875h2.813v-2.813h1.875v2.813h2.813v1.875h-2.813v2.813z" opacity="1" visibility="false" fill="#3adf00"></path>
</svg>
